<svg width="78" height="36" viewBox="0 0 78 36" fill="none" xmlns="http://www.w3.org/2000/svg">
<path d="M53.6535 23.317C54.1067 23.5646 54.3324 23.8756 54.3324 24.2501C54.3363 24.3293 54.3286 24.4066 54.3093 24.4839C54.1742 24.9831 53.8714 25.2308 53.4008 25.2308C53.287 25.2268 53.1732 25.209 53.0613 25.1832C52.5752 25.0861 52.0814 25.0326 51.5857 25.0208C50.4979 25.0208 49.6202 25.2763 48.9528 25.7894C48.3047 26.2669 47.9305 27.0455 47.9537 27.8637V34.671C47.973 34.986 47.8727 35.2951 47.6702 35.5328C47.4811 35.7349 47.1976 35.8379 46.8195 35.8379C46.5128 35.8577 46.21 35.7527 45.9785 35.5467C45.7837 35.3525 45.6834 35.0613 45.6834 34.671V24.2501C45.6217 23.6696 46.0287 23.1486 46.5939 23.0852C46.6691 23.0772 46.7443 23.0772 46.8195 23.0852C47.5756 23.0852 47.9537 23.4735 47.9537 24.2501V24.6919C48.4166 24.1431 48.9914 23.7053 49.6376 23.4101C50.3069 23.097 51.036 22.9386 51.7709 22.9425C52.5714 22.9425 53.1982 23.0673 53.6515 23.317H53.6535Z" fill="#3F4040"/>
<path d="M63.0182 33.831C63.213 34.0628 63.3133 34.3619 63.3018 34.669C63.3095 34.992 63.1706 35.301 62.9276 35.5071C62.6556 35.7329 62.3123 35.8478 61.9631 35.8339H61.5561C60.8348 35.8419 60.1269 35.6358 59.5174 35.2396C58.904 34.8414 58.4063 34.2827 58.0765 33.619C57.7216 32.9038 57.5422 32.1133 57.5557 31.3109V25.5557H56.5122C56.2287 25.5695 55.9528 25.4685 55.7407 25.2763C55.5478 25.098 55.4398 24.8444 55.4455 24.579C55.434 24.2976 55.542 24.0242 55.7407 23.8321C55.9528 23.6399 56.2287 23.5408 56.5122 23.5527H57.5557V20.1946C57.5345 19.5508 58.0244 19.0099 58.6513 18.9881C59.2782 18.9663 59.8048 19.4695 59.826 20.1134C59.826 20.1411 59.826 20.1669 59.826 20.1946V23.5527H61.7548C62.0384 23.5408 62.3142 23.6399 62.5264 23.8321C62.725 24.0262 62.833 24.2976 62.8215 24.579C62.8253 24.8444 62.7192 25.098 62.5264 25.2763C62.3142 25.4685 62.0364 25.5695 61.7548 25.5557H59.826V31.3149C59.8067 31.8795 59.9841 32.4323 60.3255 32.8761C60.6129 33.2723 61.0662 33.5061 61.5484 33.5061H62.3277C62.5958 33.5021 62.8504 33.623 63.0221 33.8349L63.0182 33.831Z" fill="#3F4040"/>
<path d="M44.0133 6.05898C43.8224 6.05898 43.6661 5.90049 43.6661 5.70237C43.6661 5.50426 43.8204 5.34576 44.0133 5.34576C44.2062 5.34576 44.3605 5.50426 44.3605 5.70237C44.3605 5.89851 44.2062 6.05898 44.0133 6.05898Z" fill="#374D42"/>
<path d="M40.4545 2.68707C40.7419 2.68707 40.9753 2.92679 40.9753 3.22199C40.9753 3.51718 40.7419 3.75888 40.4545 3.75888C40.1671 3.75888 39.9337 3.51916 39.9337 3.22199C39.9337 2.92481 40.1671 2.68707 40.4545 2.68707Z" fill="#325342"/>
<path d="M36.184 3.50533C35.7944 3.50533 35.478 3.18042 35.478 2.78022C35.478 2.38003 35.7944 2.05511 36.184 2.05511C36.5736 2.05511 36.8899 2.38003 36.8899 2.78022C36.8899 3.18042 36.5736 3.50533 36.184 3.50533Z" fill="#2C5943"/>
<path d="M32.0349 4.91191C31.5469 4.91191 31.1515 4.50578 31.1515 4.00454C31.1515 3.50331 31.5469 3.09717 32.0349 3.09717C32.5229 3.09717 32.9183 3.50331 32.9183 4.00454C32.9183 4.50379 32.5248 4.90993 32.0388 4.91191H32.0368H32.0349Z" fill="#2C5943"/>
<path d="M28.5708 7.73507C27.9805 7.73507 27.5002 7.24375 27.5002 6.63751C27.5002 6.03127 27.9767 5.53796 28.5688 5.53796C29.1591 5.53796 29.6393 6.02731 29.6393 6.63553C29.6393 7.24375 29.161 7.73507 28.5708 7.73507Z" fill="#285E43"/>
<path d="M29.1939 16.894C30.0715 16.894 30.7813 17.6251 30.7813 18.5245C30.7813 19.424 30.0696 20.155 29.1939 20.155C28.3182 20.155 27.6064 19.424 27.6064 18.5245C27.6064 17.6251 28.3182 16.894 29.1939 16.894Z" fill="#1C6B44"/>
<path d="M33.1731 18.3937C34.1279 18.3937 34.9013 19.1882 34.9013 20.1689C34.9013 21.1495 34.1279 21.944 33.1731 21.944C32.2183 21.944 31.4448 21.1495 31.4448 20.1689C31.4448 19.1882 32.2183 18.3937 33.1731 18.3937Z" fill="#197245"/>
<path d="M36.1511 18.4631C36.8667 17.7281 38.0279 17.7281 38.7454 18.4631C39.461 19.1981 39.461 20.3907 38.7454 21.1277C38.0298 21.8627 36.8686 21.8627 36.1511 21.1277C35.4355 20.3927 35.4355 19.2001 36.1511 18.4631Z" fill="#058346"/>
<path d="M39.3492 17.2942C39.5324 16.2284 40.5219 15.5151 41.5596 15.7033C42.5973 15.8916 43.2917 16.9079 43.1085 17.9738C42.9253 19.0396 41.9357 19.7528 40.898 19.5646C39.8603 19.3764 39.1659 18.3601 39.3492 17.2942Z" fill="#098A45"/>
<path d="M42.9696 14.1244C43.2493 13.0506 44.3256 12.4126 45.371 12.6999C46.4165 12.9872 47.0376 14.0927 46.7579 15.1664C46.4782 16.2402 45.4019 16.8782 44.3565 16.5909C43.311 16.3036 42.6899 15.1981 42.9696 14.1244Z" fill="#008F47"/>
<path d="M46.0423 10.0155C46.8119 9.22499 48.0579 9.22499 48.8256 10.0155C49.5952 10.806 49.5952 12.0858 48.8256 12.8743C48.056 13.6648 46.81 13.6648 46.0423 12.8743C45.2727 12.0838 45.2727 10.804 46.0423 10.0155Z" fill="#008F47"/>
<path d="M48.9857 6.74844C49.7495 5.9639 50.9879 5.9639 51.7536 6.74844C52.5174 7.53298 52.5174 8.80489 51.7536 9.59141C50.9898 10.376 49.7515 10.376 48.9857 9.59141C48.2219 8.80687 48.2219 7.53496 48.9857 6.74844Z" fill="#098A45"/>
<path d="M51.8905 4.53354C52.2994 3.52117 53.4297 3.03974 54.4173 3.45975C55.4029 3.87976 55.8717 5.04072 55.4627 6.05508C55.0538 7.06745 53.9235 7.54887 52.9359 7.12887C51.9503 6.70886 51.4816 5.5479 51.8905 4.53354Z" fill="#058346"/>
<path d="M57.4708 1.2309C58.5123 1.2309 59.3572 2.09865 59.3572 3.16847C59.3572 4.2383 58.5123 5.10605 57.4708 5.10605C56.4292 5.10605 55.5844 4.2383 55.5844 3.16847C55.5844 2.09865 56.4292 1.2309 57.4708 1.2309Z" fill="#0E7E45"/>
<path d="M60.1191 1.99367C60.418 1.37951 61.0025 1.00705 61.6255 0.961487H61.882C62.1135 0.977336 62.3469 1.04073 62.5687 1.15564C63.4695 1.61923 63.836 2.74453 63.3846 3.66974C62.9333 4.59494 61.8377 4.97136 60.9369 4.50777C60.0361 4.04418 59.6696 2.91888 60.121 1.99367H60.1191Z" fill="#197245"/>
<path d="M65.7166 2.69897C66.681 2.69897 67.4622 3.50135 67.4622 4.49193C67.4622 5.48251 66.681 6.28488 65.7166 6.28488C64.7521 6.28488 63.9709 5.48251 63.9709 4.49193C63.9709 3.50135 64.7521 2.69897 65.7166 2.69897Z" fill="#1C6B44"/>
<path d="M66.8334 7.06144C67.3928 6.32445 68.4286 6.19369 69.1461 6.76823C69.8637 7.34277 69.991 8.40665 69.4316 9.14365C68.8722 9.88064 67.8364 10.0114 67.1189 9.43686C66.4014 8.86232 66.2741 7.79844 66.8334 7.06144Z" fill="#1C6B44"/>
<path d="M68.3032 10.9406C69.1461 10.9406 69.8289 11.6419 69.8289 12.5077C69.8289 13.3735 69.1461 14.0748 68.3032 14.0748C67.4603 14.0748 66.7775 13.3735 66.7775 12.5077C66.7775 11.6419 67.4603 10.9406 68.3032 10.9406Z" fill="#216544"/>
<path d="M65.2923 15.3824C65.8323 14.8277 66.7061 14.8277 67.2462 15.3824C67.7863 15.9371 67.7863 16.8346 67.2462 17.3893C66.7061 17.9441 65.8323 17.9441 65.2923 17.3893C64.7522 16.8346 64.7522 15.9371 65.2923 15.3824Z" fill="#285E43"/>
<path d="M61.6679 18.5245C61.9244 17.8866 62.6362 17.5854 63.2573 17.8489C63.8784 18.1124 64.1715 18.8435 63.915 19.4814C63.6585 20.1194 62.9467 20.4205 62.3256 20.157C61.7045 19.8935 61.4114 19.1625 61.6679 18.5245Z" fill="#2C5943"/>
<path d="M54.3751 20.5433C53.9469 20.5433 53.5997 20.1867 53.5997 19.7469C53.5997 19.307 53.9469 18.9504 54.3751 18.9504C54.8033 18.9504 55.1505 19.307 55.1505 19.7469C55.1505 20.1867 54.8053 20.5433 54.3771 20.5433H54.3751Z" fill="#325342"/>
<path d="M50.8334 17.7122C50.573 17.7122 50.3628 17.4963 50.3628 17.2288C50.3628 16.9614 50.573 16.7454 50.8334 16.7454C51.0938 16.7454 51.3041 16.9614 51.3041 17.2288C51.3041 17.4963 51.0938 17.7122 50.8334 17.7122Z" fill="#374D42"/>
<path d="M16.6388 13.8688C16.6388 14.7761 17.4547 15.2714 18.4191 15.2714H22.9905V14.154H19.3623C19.1984 14.154 18.9553 14.1085 18.9553 13.8093V12.4899H22.4176V11.6697H18.9553V10.0768H22.5449C22.9693 10.0194 22.9924 9.78955 22.9924 9.23878V9.07831H16.6427V13.8787V13.8668L16.6388 13.8688Z" fill="#1E1E1C"/>
<path d="M13.2518 9.06641H8.6322V15.2694H13.2518C15.0399 15.2694 15.8191 14.7623 15.8519 13.0367V11.4101C15.8249 9.70236 15.0476 9.07235 13.2518 9.07235V9.06641ZM13.7224 13.2962C13.7224 14.158 13.3502 14.158 12.4918 14.158H10.725V10.0768H12.4918C13.3772 10.0768 13.7263 10.0986 13.7263 11.0139V13.3021L13.7224 13.2962Z" fill="#1E1E1C"/>
<path d="M5.33772 9.91632V14.1164H3.64612C2.88422 14.1164 2.39622 13.8588 2.39622 12.9455V9.05847H1.00552C0.326565 9.05847 0.289917 9.26253 0.289917 9.9183V12.9475C0.289917 14.8038 1.00938 15.2853 2.67012 15.2853H7.55205V9.06045H6.05719C5.37052 9.06045 5.34351 9.26451 5.34158 9.92028H5.33772V9.91632Z" fill="#1E1E1C"/>
<path d="M33.9871 14.158C33.1519 14.158 33.0477 13.6825 33.0361 12.9514V11.2397C33.0361 10.5007 33.1808 10.0292 34.0198 10.0292H37.052C37.3433 9.92224 37.3298 9.64487 37.3298 9.06439H32.9571C31.2539 9.06439 30.6887 10.0748 30.6887 11.6835V12.6602C30.6984 14.263 31.2404 15.2635 32.9339 15.2635H36.6662C37.2989 15.2635 37.3722 15.0911 37.3818 14.5443V14.15H33.9871V14.158Z" fill="#1E1E1C"/>
<path d="M28.0462 11.4557H26.3064C25.8627 11.4557 25.6737 11.1764 25.6737 10.7722C25.6737 10.3681 25.8627 10.0749 26.3064 10.0749H29.5102C29.8188 10.0313 29.9172 9.89457 29.9403 9.60334V9.07239H25.9997C24.499 9.07239 23.5385 9.52607 23.5385 10.8871C23.5385 12.1729 24.1383 12.6623 25.5464 12.6623H27.4193C27.8359 12.6623 28.0192 12.9693 28.0192 13.3438C28.0192 13.7499 27.8321 14.158 27.2033 14.158H23.6445C23.6445 15.1347 24.0612 15.2754 24.4739 15.2754H27.9459C29.4485 15.2754 30.1506 14.798 30.1506 13.3497C30.1506 11.9015 29.5623 11.4597 28.0385 11.4597H28.0404L28.0462 11.4557Z" fill="#1E1E1C"/>
<path d="M11.6779 26.1717C10.5726 24.1767 8.49913 22.9563 6.26359 22.99C5.14485 22.9761 4.04541 23.2713 3.07519 23.8419C2.13005 24.3927 1.34887 25.199 0.816506 26.1717C0.266783 27.1802 -0.0148291 28.3173 0.000601709 29.4724C0.000601709 29.508 0.000601709 29.5437 0.000601709 29.5793C0.000601709 30.6888 0.262926 31.7844 0.76057 32.771C1.23893 33.7239 1.96032 34.5263 2.84952 35.0909C3.74065 35.6516 4.7668 35.9409 5.81223 35.929C6.25973 35.929 6.70722 35.8795 7.14314 35.7745C7.58485 35.6675 7.89925 35.2633 7.90118 34.7977C7.90504 34.245 7.47105 33.7953 6.9329 33.7933C6.89239 33.7933 6.85382 33.7953 6.81331 33.8012C6.63393 33.825 6.45069 33.8349 6.26937 33.8369C5.54605 33.8468 4.83624 33.6487 4.21707 33.2663C3.60563 32.8879 3.10413 32.347 2.76272 31.7032C2.40009 31.0216 2.21492 30.2549 2.22457 29.4783C2.21492 28.6997 2.39817 27.931 2.75693 27.2455C3.09448 26.5977 3.59791 26.0529 4.21129 25.6725C6.07649 24.5076 8.50684 25.1158 9.64294 27.0316C9.68537 27.1009 9.72395 27.1722 9.7606 27.2455C10.1136 27.933 10.2949 28.6997 10.2872 29.4783C10.2872 29.7874 10.2139 34.8809 10.2139 34.8809C10.293 35.4594 10.7848 35.8854 11.3538 35.8656C11.9749 35.8834 12.4938 35.3822 12.5131 34.7423C12.5131 34.7205 12.5131 34.6987 12.5131 34.6749V29.4763C12.5266 28.3193 12.2372 27.1802 11.6798 26.1737L11.6779 26.1717Z" fill="#3F4040"/>
<path d="M77.1663 26.1717C76.0611 24.1767 73.9876 22.9563 71.752 22.99C70.6333 22.9761 69.5339 23.2713 68.5636 23.8419C67.6185 24.3927 66.8373 25.199 66.305 26.1717C65.7552 27.1782 65.4736 28.3173 65.4891 29.4704C65.4736 30.6175 65.734 31.7507 66.249 32.769C66.7274 33.722 67.4488 34.5243 68.338 35.089C69.2291 35.6496 70.2552 35.9389 71.3007 35.927C71.7482 35.927 72.1957 35.8775 72.6316 35.7725C73.0733 35.6655 73.3877 35.2613 73.3896 34.7958C73.3935 34.243 72.9595 33.7933 72.4213 33.7913C72.3808 33.7913 72.3423 33.7933 72.3018 33.7992C72.1224 33.823 71.9391 33.8329 71.7578 33.8349C71.0345 33.8448 70.3247 33.6467 69.7055 33.2643C69.0941 32.8859 68.5926 32.3451 68.2512 31.7012C67.8885 31.0197 67.7034 30.2529 67.713 29.4763C67.7034 28.6977 67.8866 27.929 68.2454 27.2436C68.5829 26.5957 69.0864 26.0509 69.6997 25.6705C71.5649 24.5056 73.9953 25.1138 75.1295 27.0296C75.17 27.0989 75.2105 27.1703 75.2471 27.2436C75.6001 27.931 75.7814 28.6977 75.7737 29.4763C75.7737 29.7854 75.7004 34.879 75.7004 34.879C75.7795 35.4575 76.2713 35.8834 76.8404 35.8636C77.4614 35.8814 77.9803 35.3802 77.9996 34.7403C77.9996 34.7284 77.9996 34.7185 77.9996 34.7066C77.9996 34.6947 77.9996 34.6848 77.9996 34.6729V29.4743C78.0131 28.3173 77.7238 27.1782 77.1663 26.1717Z" fill="#3F4040"/>
<path d="M27.1511 26.148C26.6727 25.1951 25.9513 24.3927 25.0621 23.8281C24.171 23.2674 23.1449 22.9782 22.0994 22.99C21.6944 22.99 21.2893 23.0316 20.892 23.1168C20.4387 23.2179 20.1166 23.63 20.1166 24.1054C20.1204 24.6661 20.566 25.1178 21.1119 25.1158C21.1466 25.1158 21.1794 25.1139 21.2141 25.1099C21.3568 25.094 21.5015 25.0881 21.6442 25.0881C22.3675 25.0782 23.0774 25.2763 23.6965 25.6607C24.308 26.0391 24.8095 26.5779 25.1509 27.2218C25.5116 27.9053 25.6948 28.672 25.6832 29.4486C25.6929 30.2272 25.5096 30.9959 25.1509 31.6814C24.8133 32.3312 24.3099 32.8741 23.6965 33.2564C21.8332 34.4214 19.401 33.8131 18.2668 31.8993C18.2244 31.828 18.1858 31.7567 18.1472 31.6834C17.7942 30.9959 17.6148 30.2272 17.6264 29.4506C17.6264 28.9712 17.7151 18.8217 17.7151 18.8217C17.7036 18.152 17.1674 17.6191 16.5154 17.631C16.2222 17.6369 15.9425 17.7518 15.7304 17.9579C15.5066 18.1857 15.387 18.4987 15.4025 18.8217V29.4506C15.3889 30.6056 15.6744 31.7448 16.2299 32.7493C17.3332 34.7463 19.4087 35.9667 21.6442 35.931C22.761 35.9429 23.8624 35.6497 24.8326 35.0811C25.7778 34.5283 26.5589 33.722 27.0913 32.7493C27.641 31.7428 27.9207 30.6037 27.9072 29.4506C27.9226 28.3035 27.6622 27.1703 27.1492 26.15L27.1511 26.148Z" fill="#3F4040"/>
<path d="M41.5269 30.2887C41.8046 30.2986 42.0747 30.1936 42.2772 29.9975C42.472 29.8073 42.58 29.5398 42.5723 29.2625C42.5935 28.1352 42.3621 27.0178 41.8934 25.9975C41.4652 25.0802 40.7881 24.3115 39.9414 23.7826C39.0927 23.2536 38.0877 22.9881 36.9227 22.9901C35.8136 22.9723 34.7219 23.2576 33.7575 23.8182C32.8355 24.3631 32.0832 25.1634 31.5836 26.1263C31.0513 27.1565 30.7812 28.3095 30.8005 29.4764C30.7812 30.6433 31.0667 31.7944 31.628 32.8107C32.1739 33.7815 32.9743 34.5779 33.9388 35.1069C34.9495 35.6577 36.0682 35.937 37.1889 35.935C37.9566 35.935 38.7262 35.8023 39.4649 35.5388C40.1574 35.3129 40.8055 34.9662 41.3822 34.5126C41.6098 34.358 41.7468 34.0945 41.7468 33.8152C41.7371 33.5002 41.5867 33.209 41.3398 33.0227C41.1508 32.8603 40.9077 32.7771 40.6608 32.7889C40.3889 32.783 40.1246 32.8741 39.9105 33.0465C39.5421 33.3219 39.1312 33.5339 38.6972 33.6765C38.242 33.8409 37.7618 33.9281 37.2795 33.9341C36.3209 33.9598 35.3777 33.6686 34.5907 33.1059L34.5792 33.094C34.502 33.0366 34.4229 32.9791 34.3477 32.9157C31.601 30.5443 32.9608 26.7761 34.2339 25.9222C35.0035 25.4091 35.8194 24.9891 36.9246 24.9891C37.9218 24.9891 38.73 25.3001 39.3531 25.9222C39.9761 26.5443 40.3541 27.3764 40.4872 28.4165H35.5474C35.0517 28.4165 34.6505 28.8286 34.6486 29.3358V29.3556C34.6486 29.8667 35.0479 30.2808 35.5455 30.2828L41.5288 30.2907L41.5269 30.2887Z" fill="#3F4040"/>
</svg>
